<?xml version="1.0" encoding="UTF-8" standalone="no"?>
<!DOCTYPE svg PUBLIC "-//W3C//DTD SVG 1.1//EN" "http://www.w3.org/Graphics/SVG/1.1/DTD/svg11.dtd">
<svg width="70px" viewBox="0 0 680 811" version="1.1" xmlns="http://www.w3.org/2000/svg" xmlns:xlink="http://www.w3.org/1999/xlink" xml:space="preserve" xmlns:serif="http://www.serif.com/" style="fill-rule:evenodd;clip-rule:evenodd;stroke-linejoin:round;stroke-miterlimit:2;">
    <g id="Artboard1" transform="matrix(0.962605,0,0,0.998027,0,0)">
        <rect x="0" y="0" width="706.417" height="812.603" style="fill:none;"/>
        <g transform="matrix(1.10583,0,0,1.06658,-43.9977,-21.6274)">
            <g transform="matrix(0.881353,0,0,0.881353,41.907,39.7802)">
                <path d="M706.389,826.186L706.389,726.057L694.319,726.057L694.319,785.038L653.719,724.274L653.719,824.266L665.789,824.266L665.789,765.56L706.389,826.186ZM125.504,826.186C154.034,826.186 176.666,803.417 176.666,775.025C176.666,746.769 154.034,724 125.504,724C97.249,724 74.617,746.769 74.617,775.025C74.617,803.417 97.249,826.186 125.504,826.186ZM596.11,826.186C620.36,826.186 640.349,809.736 645.801,787.365C646.763,783.417 647.272,779.284 647.272,775.025C647.272,746.769 624.64,724 596.11,724C567.855,724 545.223,746.769 545.223,775.025C545.223,803.417 567.855,826.186 596.11,826.186ZM208.762,825.775C225.222,825.775 239.761,812.882 239.761,796.011C239.761,782.294 229.885,770.635 216.855,767.343C207.116,764.875 194.497,763.777 194.497,750.61C194.497,742.38 201.355,736.345 209.448,736.345C215.757,736.345 220.421,739.774 223.438,745.123L234,739.225C228.514,730.447 219.872,724.686 209.448,724.686C194.909,724.686 182.427,735.796 182.427,750.61C182.427,762.68 190.931,772.83 202.453,775.71C214.249,778.728 227.691,780.511 227.691,796.011C227.691,806.435 219.049,814.116 208.762,814.116C198.886,814.116 192.028,807.395 189.834,798.068L178.312,801.086C181.878,815.351 193.674,825.775 208.762,825.775ZM68.17,824.266L68.17,726.057L56.1,726.057L56.1,755.959L25.512,755.959L25.512,726.057L13.442,726.057L13.442,755.959L7.27,755.959L0,767.618L13.442,767.618L13.442,824.266L25.512,824.266L25.512,767.618L56.1,767.618L56.1,824.266L68.17,824.266ZM556.744,824.266L519.573,758.428L542.068,726.057L527.529,726.057L504.074,759.662L504.074,726.057L492.004,726.057L492.004,824.266L504.074,824.266L504.074,780.648L512.029,769.264L543.165,824.266L556.744,824.266ZM340.85,824.266L340.85,726.057L328.78,726.057L328.78,755.959L298.192,755.959L298.192,726.057L286.122,726.057L286.122,755.959L279.95,755.959L272.68,767.618L286.122,767.618L286.122,824.266L298.192,824.266L298.192,767.618L328.78,767.618L328.78,824.266L340.85,824.266ZM412.175,824.266L412.175,750.61C412.175,735.933 399.83,724 384.605,724C369.243,724 356.898,735.933 356.898,750.61L356.898,785.998L352.372,785.998L345.102,797.657L356.898,797.657L356.898,824.266L368.968,824.266L368.968,797.657L400.104,797.657L400.104,824.266L412.175,824.266ZM483.499,824.266L483.499,750.61C483.499,735.933 471.155,724 455.93,724C440.567,724 428.223,735.933 428.223,750.61L428.223,785.998L423.696,785.998L416.427,797.657L428.223,797.657L428.223,824.266L440.293,824.266L440.293,797.657L471.429,797.657L471.429,824.266L483.499,824.266ZM125.504,735.659C147.587,735.659 165.007,753.079 165.007,775.025C165.007,796.971 147.587,814.528 125.504,814.528C103.832,814.528 86.276,796.971 86.276,775.025C86.276,753.079 103.832,735.659 125.504,735.659ZM596.11,735.659C618.193,735.659 635.613,753.079 635.613,775.025C635.613,796.971 618.193,814.528 596.11,814.528C574.439,814.528 556.882,796.971 556.882,775.025C556.882,753.079 574.439,735.659 596.11,735.659ZM400.104,785.998L368.968,785.998L368.968,750.61C368.968,743.203 374.866,735.659 384.605,735.659C392.149,735.659 400.104,741.283 400.104,750.61L400.104,785.998ZM471.429,785.998L440.293,785.998L440.293,750.61C440.293,743.203 446.191,735.659 455.93,735.659C463.474,735.659 471.429,741.283 471.429,750.61L471.429,785.998Z" style="fill:rgb(38,38,38);fill-rule:nonzero;"/>
            </g>
            <g transform="matrix(0.881353,0,0,0.881353,41.907,22.3972)">
                <path d="M706.417,13.583L13.583,13.583L13.583,706.417L706.417,706.417L706.417,13.583ZM685.583,98.87L685.583,34.417L34.417,34.417L34.417,685.583L79.398,685.583L160.085,397.019L521.545,465.896L482.361,410.144L685.583,98.87ZM101.03,685.583L675.947,685.583L538.755,490.383L174.993,421.067L101.03,685.583ZM556.831,479.871L685.583,663.063L685.583,156.319L556.831,479.871ZM507.523,409.713L542.515,459.501L647.872,194.742L507.523,409.713Z" style="fill:rgb(38,38,38);"/>
            </g>
        </g>
    </g>
</svg>
