<?xml version="1.0" encoding="UTF-8" standalone="no"?>
<!DOCTYPE svg PUBLIC "-//W3C//DTD SVG 1.1//EN" "http://www.w3.org/Graphics/SVG/1.1/DTD/svg11.dtd">
<svg width="100%" height="100%" viewBox="0 0 90 105" version="1.1" xmlns="http://www.w3.org/2000/svg" xmlns:xlink="http://www.w3.org/1999/xlink" xml:space="preserve" xmlns:serif="http://www.serif.com/" style="fill-rule:evenodd;clip-rule:evenodd;stroke-linejoin:round;stroke-miterlimit:2;">
    <g id="LOGO-DISPLAY-85---SORT" serif:id="LOGO DISPLAY 85 % SORT" transform="matrix(0.0579964,0,0,0.074747,-0.579964,-23.8575)">
        <rect x="10" y="319.177" width="1551.82" height="1404.74" style="fill:none;"/>
        <clipPath id="_clip1">
            <rect x="10" y="319.177" width="1551.82" height="1404.74"/>
        </clipPath>
        <g clip-path="url(#_clip1)">
            <g transform="matrix(3.1198,0,0,2.42066,329.576,-177.898)">
                <path d="M-54.018,775.093L-54.018,706.446L-63.893,706.446L-63.893,726.772L-82.684,726.772L-82.684,706.446L-92.56,706.446L-92.56,726.772L-96.395,726.772L-102.435,736.647L-92.56,736.647L-92.56,775.093L-82.684,775.093L-82.684,736.647L-63.893,736.647L-63.893,775.093L-54.018,775.093Z" style="fill:rgb(38,38,38);fill-rule:nonzero;"/>
                <path d="M-13.942,776.435C6.001,776.435 21.82,760.52 21.82,740.674C21.82,720.923 6.001,705.008 -13.942,705.008C-33.692,705.008 -49.511,720.923 -49.511,740.674C-49.511,760.52 -33.692,776.435 -13.942,776.435ZM-13.942,714.787C0.632,714.787 12.041,726.197 12.041,740.674C12.041,755.151 0.632,766.656 -13.942,766.656C-28.227,766.656 -39.732,755.151 -39.732,740.674C-39.732,726.197 -28.227,714.787 -13.942,714.787Z" style="fill:rgb(38,38,38);fill-rule:nonzero;"/>
                <path d="M44.255,776.148C55.76,776.148 65.923,767.04 65.923,754.959C65.923,745.18 59.02,736.839 49.912,734.538C48.282,734.154 46.556,733.771 44.83,733.291C43.104,732.908 41.57,732.333 40.132,731.662C37.544,730.223 35.626,728.114 35.626,724.087C35.626,719.102 39.749,715.267 44.734,715.267C48.569,715.267 51.35,717.28 53.747,721.499L62.375,716.705C58.157,709.61 52.117,705.487 44.734,705.487C34.572,705.487 25.751,713.445 25.751,724.087C25.751,732.716 31.695,740.003 39.845,742.112C41.762,742.591 43.871,743.071 45.789,743.55C51.541,745.276 56.048,747.769 56.048,754.959C56.048,761.479 50.679,766.369 44.255,766.369C38.119,766.369 33.805,762.15 32.27,755.151L22.779,757.74C25.463,768.765 33.709,776.148 44.255,776.148Z" style="fill:rgb(38,38,38);fill-rule:nonzero;"/>
                <path d="M130.064,775.093L130.064,706.446L120.188,706.446L120.188,726.772L101.397,726.772L101.397,706.446L91.522,706.446L91.522,726.772L87.687,726.772L81.646,736.647L91.522,736.647L91.522,775.093L101.397,775.093L101.397,736.647L120.188,736.647L120.188,775.093L130.064,775.093Z" style="fill:rgb(38,38,38);fill-rule:nonzero;"/>
                <path d="M179.919,775.093L179.919,724.087C179.919,713.541 171.194,705.008 160.456,705.008C149.718,705.008 140.898,713.541 140.898,724.087L140.898,747.193L138.309,747.193L132.269,756.973L140.898,756.973L140.898,775.093L150.869,775.093L150.869,756.973L169.948,756.973L169.948,775.093L179.919,775.093ZM169.948,747.193L150.869,747.193L150.869,724.087C150.869,719.485 154.512,714.787 160.456,714.787C165.154,714.787 169.948,718.335 169.948,724.087L169.948,747.193Z" style="fill:rgb(38,38,38);fill-rule:nonzero;"/>
                <path d="M229.774,775.093L229.774,724.087C229.774,713.541 221.05,705.008 210.312,705.008C199.573,705.008 190.753,713.541 190.753,724.087L190.753,747.193L188.164,747.193L182.124,756.973L190.753,756.973L190.753,775.093L200.724,775.093L200.724,756.973L219.803,756.973L219.803,775.093L229.774,775.093ZM219.803,747.193L200.724,747.193L200.724,724.087C200.724,719.485 204.367,714.787 210.312,714.787C215.009,714.787 219.803,718.335 219.803,724.087L219.803,747.193Z" style="fill:rgb(38,38,38);fill-rule:nonzero;"/>
                <path d="M281.643,775.093L256.14,729.456L271.96,706.446L259.975,706.446L245.69,727.251L245.69,706.446L235.719,706.446L235.719,775.093L245.69,775.093L245.69,744.797L250.004,738.469L270.426,775.093L281.643,775.093Z" style="fill:rgb(38,38,38);fill-rule:nonzero;"/>
                <path d="M308.488,776.435C328.43,776.435 344.25,760.52 344.25,740.674C344.25,720.923 328.43,705.008 308.488,705.008C288.738,705.008 272.918,720.923 272.918,740.674C272.918,760.52 288.738,776.435 308.488,776.435ZM308.488,714.787C323.061,714.787 334.47,726.197 334.47,740.674C334.47,755.151 323.061,766.656 308.488,766.656C294.203,766.656 282.698,755.151 282.698,740.674C282.698,726.197 294.203,714.787 308.488,714.787Z" style="fill:rgb(38,38,38);fill-rule:nonzero;"/>
                <path d="M385.572,778.641L385.572,706.446L375.697,706.446L375.697,744.413L348.756,702.995L348.756,775.093L358.631,775.093L358.631,737.318L385.572,778.641Z" style="fill:rgb(38,38,38);fill-rule:nonzero;"/>
            </g>
            <g transform="matrix(6.13065,0,0,4.75677,-4903.29,-1352.53)">
                <path d="M1049.5,356.5L806.5,356.5L806.5,599.5L1049.5,599.5L1049.5,356.5ZM1036.5,387.752L1036.5,369.5L819.5,369.5L819.5,586.5L829.734,586.5L857.477,487.282L976.724,510.005L966.335,495.223L1036.5,387.752ZM843.233,586.5L1030.49,586.5L987.464,525.286L866.779,502.289L843.233,586.5ZM998.681,518.638L1036.5,572.448L1036.5,423.6L998.681,518.638ZM982.036,494.954L989.748,505.927L1012.97,447.576L982.036,494.954Z" style="fill:rgb(38,38,38);"/>
            </g>
        </g>
    </g>
</svg>
