<?xml version="1.0" encoding="UTF-8" standalone="no"?>
<!DOCTYPE svg PUBLIC "-//W3C//DTD SVG 1.1//EN" "http://www.w3.org/Graphics/SVG/1.1/DTD/svg11.dtd">
<svg width="100%" height="100%" viewBox="0 0 280 46" version="1.1" xmlns="http://www.w3.org/2000/svg" xmlns:xlink="http://www.w3.org/1999/xlink" xml:space="preserve" xmlns:serif="http://www.serif.com/" style="fill-rule:evenodd;clip-rule:evenodd;stroke-miterlimit:1.5;">
    <g id="Artboard1" transform="matrix(1,0,0,0.766667,0,0)">
        <rect x="0" y="0" width="280" height="60" style="fill:none;"/>
        <clipPath id="_clip1">
            <rect x="0" y="0" width="280" height="60"/>
        </clipPath>
        <g clip-path="url(#_clip1)">
            <g id="hoshaakon.svg" transform="matrix(0.0667064,0,0,0.0870084,139.016,30.2354)">
                <g transform="matrix(1,0,0,1,-2084,-347.5)">
                    <clipPath id="_clip2">
                        <rect x="0" y="0" width="4168" height="695"/>
                    </clipPath>
                    <g clip-path="url(#_clip2)">
                        <g transform="matrix(0.893517,0,0,0.893517,-106.148,-2216.9)">
                            <g id="STOL" transform="matrix(1.07888,0,0,0.94731,-711.939,2481.09)">
                                <g id="Logo">
                                    <g>
                                        <g>
                                            <g id="STOL1" serif:id="STOL">
                                                <rect x="770" y="0" width="720" height="820" style="fill:none;"/>
                                                <g transform="matrix(0.996566,0,0,1.29261,618.165,-200.95)">
                                                    <g transform="matrix(1.08286,0,0,0.92448,-56.8966,-13.9517)">
                                                        <rect x="246.061" y="237.572" width="561.565" height="577.553" style="fill:none;stroke:rgb(30,39,56);stroke-width:46.93px;"/>
                                                    </g>
                                                    <g transform="matrix(1.02512,0,0,0.900789,-12.9014,7.21049)">
                                                        <path d="M810.195,289.101L632.716,560.739L810.195,813.07" style="fill:none;stroke:rgb(30,39,56);stroke-width:48.88px;"/>
                                                    </g>
                                                    <g transform="matrix(1.02512,0,0,0.900789,-12.9014,7.21049)">
                                                        <path d="M272.88,813.07L343.708,559.957L677.054,623.429L810.195,289.101" style="fill:none;stroke:rgb(30,39,56);stroke-width:48.88px;"/>
                                                    </g>
                                                </g>
                                            </g>
                                        </g>
                                    </g>
                                </g>
                            </g>
                            <g transform="matrix(1,0,0,1,-297.401,278.742)">
                                <g transform="matrix(730.378,0,0,730.378,1307.46,2852.59)">
                                    <path d="M0.513,-0L0.513,-0.716L0.425,-0.716L0.425,-0.498L0.202,-0.498L0.202,-0.716L0.114,-0.716L0.114,-0.498L0.069,-0.498L0.016,-0.413L0.114,-0.413L0.114,-0L0.202,-0L0.202,-0.413L0.425,-0.413L0.425,-0L0.513,-0Z" style="fill:rgb(30,39,56);fill-rule:nonzero;"/>
                                </g>
                                <g transform="matrix(730.378,0,0,730.378,1704.79,2852.59)">
                                    <path d="M0.387,0.014C0.595,0.014 0.76,-0.152 0.76,-0.359C0.76,-0.565 0.595,-0.731 0.387,-0.731C0.181,-0.731 0.016,-0.565 0.016,-0.359C0.016,-0.152 0.181,0.014 0.387,0.014ZM0.387,-0.646C0.548,-0.646 0.675,-0.519 0.675,-0.359C0.675,-0.199 0.548,-0.071 0.387,-0.071C0.229,-0.071 0.101,-0.199 0.101,-0.359C0.101,-0.519 0.229,-0.646 0.387,-0.646Z" style="fill:rgb(30,39,56);fill-rule:nonzero;"/>
                                </g>
                                <g transform="matrix(730.378,0,0,730.378,2256.96,2852.59)">
                                    <path d="M0.238,0.011C0.358,0.011 0.464,-0.083 0.464,-0.206C0.464,-0.306 0.392,-0.391 0.297,-0.415C0.226,-0.433 0.134,-0.441 0.134,-0.537C0.134,-0.597 0.184,-0.641 0.243,-0.641C0.289,-0.641 0.323,-0.616 0.345,-0.577L0.422,-0.62C0.382,-0.684 0.319,-0.726 0.243,-0.726C0.137,-0.726 0.046,-0.645 0.046,-0.537C0.046,-0.449 0.108,-0.375 0.192,-0.354C0.278,-0.332 0.376,-0.319 0.376,-0.206C0.376,-0.13 0.313,-0.074 0.238,-0.074C0.166,-0.074 0.116,-0.123 0.1,-0.191L0.016,-0.169C0.042,-0.065 0.128,0.011 0.238,0.011Z" style="fill:rgb(30,39,56);fill-rule:nonzero;"/>
                                </g>
                                <g transform="matrix(730.378,0,0,730.378,2759.46,2852.59)">
                                    <path d="M0.513,-0L0.513,-0.716L0.425,-0.716L0.425,-0.498L0.202,-0.498L0.202,-0.716L0.114,-0.716L0.114,-0.498L0.069,-0.498L0.016,-0.413L0.114,-0.413L0.114,-0L0.202,-0L0.202,-0.413L0.425,-0.413L0.425,-0L0.513,-0Z" style="fill:rgb(30,39,56);fill-rule:nonzero;"/>
                                </g>
                                <g transform="matrix(730.378,0,0,730.378,3145.1,2852.59)">
                                    <path d="M0.505,-0L0.505,-0.537C0.505,-0.644 0.415,-0.731 0.304,-0.731C0.192,-0.731 0.102,-0.644 0.102,-0.537L0.102,-0.279L0.069,-0.279L0.016,-0.194L0.102,-0.194L0.102,-0L0.19,-0L0.19,-0.194L0.417,-0.194L0.417,-0L0.505,-0ZM0.417,-0.279L0.19,-0.279L0.19,-0.537C0.19,-0.591 0.233,-0.646 0.304,-0.646C0.359,-0.646 0.417,-0.605 0.417,-0.537L0.417,-0.279Z" style="fill:rgb(30,39,56);fill-rule:nonzero;"/>
                                </g>
                                <g transform="matrix(730.378,0,0,730.378,3524.89,2852.59)">
                                    <path d="M0.505,-0L0.505,-0.537C0.505,-0.644 0.415,-0.731 0.304,-0.731C0.192,-0.731 0.102,-0.644 0.102,-0.537L0.102,-0.279L0.069,-0.279L0.016,-0.194L0.102,-0.194L0.102,-0L0.19,-0L0.19,-0.194L0.417,-0.194L0.417,-0L0.505,-0ZM0.417,-0.279L0.19,-0.279L0.19,-0.537C0.19,-0.591 0.233,-0.646 0.304,-0.646C0.359,-0.646 0.417,-0.605 0.417,-0.537L0.417,-0.279Z" style="fill:rgb(30,39,56);fill-rule:nonzero;"/>
                                </g>
                                <g transform="matrix(730.378,0,0,730.378,3916.37,2852.59)">
                                    <path d="M0.503,-0L0.232,-0.48L0.396,-0.716L0.29,-0.716L0.119,-0.471L0.119,-0.716L0.031,-0.716L0.031,-0L0.119,-0L0.119,-0.318L0.177,-0.401L0.404,-0L0.503,-0Z" style="fill:rgb(30,39,56);fill-rule:nonzero;"/>
                                </g>
                                <g transform="matrix(730.378,0,0,730.378,4210.72,2852.59)">
                                    <path d="M0.387,0.014C0.595,0.014 0.76,-0.152 0.76,-0.359C0.76,-0.565 0.595,-0.731 0.387,-0.731C0.181,-0.731 0.016,-0.565 0.016,-0.359C0.016,-0.152 0.181,0.014 0.387,0.014ZM0.387,-0.646C0.548,-0.646 0.675,-0.519 0.675,-0.359C0.675,-0.199 0.548,-0.071 0.387,-0.071C0.229,-0.071 0.101,-0.199 0.101,-0.359C0.101,-0.519 0.229,-0.646 0.387,-0.646Z" style="fill:rgb(30,39,56);fill-rule:nonzero;"/>
                                </g>
                                <g transform="matrix(730.378,0,0,730.378,4777.49,2852.59)">
                                    <path d="M0.415,0.014L0.415,-0.716L0.327,-0.716L0.327,-0.286L0.031,-0.729L0.031,-0L0.119,-0L0.119,-0.428L0.415,0.014Z" style="fill:rgb(30,39,56);fill-rule:nonzero;"/>
                                </g>
                            </g>
                        </g>
                    </g>
                </g>
            </g>
        </g>
    </g>
</svg>
